<?xml version="1.0" encoding="UTF-8" standalone="no"?>
<!DOCTYPE svg PUBLIC "-//W3C//DTD SVG 1.1//EN"
 "http://www.w3.org/Graphics/SVG/1.1/DTD/svg11.dtd">
<!-- Generated by graphviz version 2.40.1 (20161225.0304)
 -->
<!-- Title: dependencies Pages: 1 -->
<svg width="504pt" height="284pt"
 viewBox="0.00 0.00 504.00 284.00" xmlns="http://www.w3.org/2000/svg" xmlns:xlink="http://www.w3.org/1999/xlink">
<g id="graph0" class="graph" transform="scale(1 1) rotate(0) translate(4 280)">
<title>dependencies</title>
<polygon fill="#ffffff" stroke="transparent" points="-4,4 -4,-280 500,-280 500,4 -4,4"/>
<text text-anchor="start" x="227.0091" y="-42.4" font-family="sans-serif" font-weight="bold" font-size="14.00" fill="#000000">Legend</text>
<polygon fill="#ffffb3" stroke="transparent" points="14,-10 14,-30 34,-30 34,-10 14,-10"/>
<text text-anchor="start" x="37.629" y="-15.4" font-family="sans-serif" font-size="14.00" fill="#000000"> &#160;Declarations</text>
<polygon fill="#8dd3c7" stroke="transparent" points="127,-10 127,-30 147,-30 147,-10 127,-10"/>
<text text-anchor="start" x="150.7251" y="-15.4" font-family="sans-serif" font-size="14.00" fill="#000000"> &#160;Module</text>
<polygon fill="#80b1d3" stroke="transparent" points="213,-10 213,-30 233,-30 233,-10 213,-10"/>
<text text-anchor="start" x="236.7812" y="-15.4" font-family="sans-serif" font-size="14.00" fill="#000000"> &#160;Bootstrap</text>
<polygon fill="#fdb462" stroke="transparent" points="310,-10 310,-30 330,-30 330,-10 310,-10"/>
<text text-anchor="start" x="333.6732" y="-15.4" font-family="sans-serif" font-size="14.00" fill="#000000"> &#160;Providers</text>
<polygon fill="#fb8072" stroke="transparent" points="406,-10 406,-30 426,-30 426,-10 406,-10"/>
<text text-anchor="start" x="429.7258" y="-15.4" font-family="sans-serif" font-size="14.00" fill="#000000"> &#160;Exports</text>
<g id="clust1" class="cluster">
<title>cluster_NgrxDataLibModule</title>
<polygon fill="none" stroke="#000000" stroke-dasharray="1,5" points="49,-70 49,-268 447,-268 447,-70 49,-70"/>
</g>
<g id="clust2" class="cluster">
<title>cluster_NgrxDataLibModule_declarations</title>
<polygon fill="none" stroke="#000000" points="57,-78 57,-130 439,-130 439,-78 57,-78"/>
</g>
<g id="clust6" class="cluster">
<title>cluster_NgrxDataLibModule_exports</title>
<polygon fill="none" stroke="#000000" points="152,-208 152,-260 328,-260 328,-208 152,-208"/>
</g>
<!-- NgrxDataConfigurationService -->
<g id="node1" class="node">
<title>NgrxDataConfigurationService</title>
<polygon fill="#ffffb3" stroke="#000000" points="430.7156,-122 239.2844,-122 239.2844,-86 430.7156,-86 430.7156,-122"/>
<text text-anchor="middle" x="335" y="-99.8" font-family="Times,serif" font-size="14.00" fill="#000000">NgrxDataConfigurationService</text>
</g>
<!-- NgrxDataLibModule -->
<g id="node3" class="node">
<title>NgrxDataLibModule</title>
<polygon fill="#8dd3c7" stroke="#000000" points="307.1867,-187 304.1867,-191 283.1867,-191 280.1867,-187 172.8133,-187 172.8133,-151 307.1867,-151 307.1867,-187"/>
<text text-anchor="middle" x="240" y="-164.8" font-family="Times,serif" font-size="14.00" fill="#000000">NgrxDataLibModule</text>
</g>
<!-- NgrxDataConfigurationService&#45;&gt;NgrxDataLibModule -->
<g id="edge1" class="edge">
<title>NgrxDataConfigurationService&#45;&gt;NgrxDataLibModule</title>
<path fill="none" stroke="#000000" d="M273.1178,-122.1061C273.1178,-122.1061 273.1178,-140.991 273.1178,-140.991"/>
<polygon fill="#000000" stroke="#000000" points="269.6179,-140.9909 273.1178,-150.991 276.6179,-140.991 269.6179,-140.9909"/>
</g>
<!-- NgrxDataLibComponent -->
<g id="node2" class="node">
<title>NgrxDataLibComponent</title>
<polygon fill="#ffffb3" stroke="#000000" points="220.9692,-122 65.0308,-122 65.0308,-86 220.9692,-86 220.9692,-122"/>
<text text-anchor="middle" x="143" y="-99.8" font-family="Times,serif" font-size="14.00" fill="#000000">NgrxDataLibComponent</text>
</g>
<!-- NgrxDataLibComponent&#45;&gt;NgrxDataLibModule -->
<g id="edge2" class="edge">
<title>NgrxDataLibComponent&#45;&gt;NgrxDataLibModule</title>
<path fill="none" stroke="#000000" d="M196.9457,-122.1061C196.9457,-122.1061 196.9457,-140.991 196.9457,-140.991"/>
<polygon fill="#000000" stroke="#000000" points="193.4457,-140.9909 196.9457,-150.991 200.4457,-140.991 193.4457,-140.9909"/>
</g>
<!-- NgrxDataLibComponent  -->
<g id="node4" class="node">
<title>NgrxDataLibComponent </title>
<polygon fill="#fb8072" stroke="#000000" points="319.9699,-252 160.0301,-252 160.0301,-216 319.9699,-216 319.9699,-252"/>
<text text-anchor="middle" x="240" y="-229.8" font-family="Times,serif" font-size="14.00" fill="#000000">NgrxDataLibComponent </text>
</g>
<!-- NgrxDataLibModule&#45;&gt;NgrxDataLibComponent  -->
<g id="edge3" class="edge">
<title>NgrxDataLibModule&#45;&gt;NgrxDataLibComponent </title>
<path fill="none" stroke="#000000" stroke-dasharray="5,2" d="M240,-187.1061C240,-187.1061 240,-205.991 240,-205.991"/>
<polygon fill="#000000" stroke="#000000" points="236.5001,-205.9909 240,-215.991 243.5001,-205.991 236.5001,-205.9909"/>
</g>
</g>
</svg>
